<?xml version="1.0" encoding="utf-8"?>
<!-- Generator: Adobe Illustrator 17.1.0, SVG Export Plug-In . SVG Version: 6.00 Build 0)  -->
<!DOCTYPE svg PUBLIC "-//W3C//DTD SVG 1.1//EN" "http://www.w3.org/Graphics/SVG/1.1/DTD/svg11.dtd">
<svg version="1.1" id="Calque_1" xmlns="http://www.w3.org/2000/svg" xmlns:xlink="http://www.w3.org/1999/xlink" x="0px" y="0px"
	 viewBox="0 0 147.6 58.9" enable-background="new 0 0 147.6 58.9" xml:space="preserve">
<g>
	<path fill="#9AD0C0" d="M118.7,22.7c1-0.9,1.5-2,1.8-3.3c0.2-0.7-0.3-1.1-0.9-1c-0.5,0.1-0.9,0.3-1.3,0.6c-1.2,0.9-1.9,2.3-2.5,3.6
		c-0.1,0.2,0,0.5-0.1,0.7C116.9,23.7,117.8,23.5,118.7,22.7z"/>
	<path fill="#9AD0C0" d="M48.2,22.8c1.1-0.9,1.5-2.1,1.9-3.4c0.1-0.5-0.3-1-0.9-0.9c-0.5,0.1-1,0.3-1.4,0.6
		c-1.2,0.9-1.8,2.2-2.4,3.5c-0.1,0.2,0,0.5-0.1,0.7C46.4,23.7,47.3,23.5,48.2,22.8z"/>
	<path fill="#9AD0C0" d="M139,0H0v58.9h121.5c3.5,0,6.6-2.1,8-5.3L147,12C149.3,6.3,145.2,0,139,0z M8.8,20.4
		c-0.6-0.6-0.6-1.3,0.1-1.8c0.8-0.7,6.2-3.1,9.6-4.6c0.4-0.2,0.8,0.2,0.6,0.6l-1,2.4c-0.1,0.3-0.8,1.1-1.3,1.3
		c-1.8,0.7-2.7,1.2-3.2,1.4c-1.3,0.5-2.3,1-2.5,1.1C10.1,21.3,9.5,21,8.8,20.4z M11.9,23.4c-0.6-0.6-0.5-1.3,0.2-1.8
		c0.4-0.3,2.1-1.1,4.1-1.9c0.4-0.1,0.7,0.2,0.6,0.6l-1.1,2.8c-0.1,0.2-0.4,0.5-0.6,0.6c-0.6,0.2-0.8,0.3-0.9,0.4
		C13.2,24.4,12.6,24.1,11.9,23.4z M35,38.1c-0.6,0.8-1.5,0.7-2.7-0.9c-1.4-1.8-1.8-4.3-1-6.5c0.3-0.9,0.7-1.9,1.1-2.8
		c1.8-4.5,3.6-9,5.4-13.5c0.2-0.4,0.3-0.8,0.4-1.2c0.1-0.4,0.1-0.9,0.1-1.5c-0.6,0-1.1,0-1.5,0.1c-1.9,0.7-3.5,1.9-4.3,3.9
		c-2,5-4,10-6.1,15.1c-0.6,1.4-2.4,2-3.7,1.4c-0.4-0.2-0.6-0.6-0.4-1.2c0.3-0.8,0.6-1.5,0.9-2.2c2-4.9,4-9.9,6-14.8
		c0.2-0.4,0.3-0.8,0.4-1.2c0-0.3-0.1-0.6-0.1-0.9c-0.7-0.2-1.2-0.2-1.7,0.1c-1.8,0.8-3.3,2-4,3.9c-1.9,4.8-3.9,9.7-5.8,14.5
		c-0.1,0.1-0.1,0.3-0.2,0.4c-0.7,1.6-2.5,2.1-4.2,1.1c0.1-0.5,0.2-1,0.3-1.4c2.3-5.9,4.7-11.7,7.1-17.6c0.1-0.3,0.2-0.5,0.3-0.9
		c-0.4,0-0.6,0-0.8,0c-2,0.8-8.9,3.9-10.2,4.4c-1.3,0.5-2.3,1-2.5,1.1c-0.9,0.5-1.6,0.2-2.2-0.5c-0.6-0.6-0.6-1.3,0.1-1.8
		c1.1-0.9,9.8-4.8,12-5.6c1.4-0.5,2.8-1,4.2-1.5c0.9-0.4,1.7-0.2,2.5,0.5C25.7,10,25.7,10,27.4,9c1.1-0.6,2.2-1,3.4-1.1
		c1.4,0,2.4,0.5,2.9,1.8c0.1,0.1,0.1,0.3,0.2,0.4c0,0,0.1,0.1,0.2,0.2c0.3-0.2,0.6-0.4,0.9-0.6c1-0.8,2.2-1.4,3.5-1.7
		c2.9-0.6,4.7,1.2,4,4c-0.4,1.6-1,3.2-1.7,4.7c-1.9,4.9-3.9,9.8-5.9,14.6c-0.2,0.5-0.4,1-0.5,1.6c-0.1,0.7,0.1,1.4,0.5,2
		C35.8,36.1,35.7,37,35,38.1z M127.3,24.3c0,0.1-0.1,0.2-0.1,0.3c-1.6,2.6-3.5,4.9-6.2,6.5c-2,1.1-4.1,1.5-6.2,1.1
		c-2.2-0.3-3.6-1.6-4-3.7c-0.9,0.9-1.7,1.8-2.6,2.6c-0.8,0.7-1.7,1.1-2.8,1.2c-2.4,0.1-3.5-1.5-3.3-3.6c0.1-1.1,0.4-2.1,0.8-3.1
		c0.4-1.2,0.9-2.3,1.4-3.5c0.4-0.9,0.2-1.5-0.6-2.1c-0.2-0.1-0.5-0.2-0.8-0.3c-0.4,0.8-0.7,1.5-1.1,2.1c-1.2,2.4-2.5,4.8-4.3,6.9
		c-1,1.3-2.2,2.4-3.7,3.2c-1,0.5-1.9,0.6-3,0.4c-0.9-0.1-1.6-0.6-2-1.4c-0.1-0.3-0.3-0.5-0.5-0.9c-0.4,0.3-0.8,0.6-1.1,0.9
		c-1.2,1-2.5,1.6-4.1,1.4c-1.3-0.2-2.2-1.2-2.4-2.4c0-0.2-0.1-0.5-0.1-0.8c-0.2,0.2-0.4,0.3-0.6,0.5c-2.3,2-5,3.1-8.1,2.8
		c-2.4-0.2-3.9-1.5-4.4-3.8c-0.8,0.9-1.6,1.8-2.5,2.6c-0.8,0.7-1.7,1.2-2.8,1.2c-2.5,0.2-3.6-1.5-3.4-3.8c0.2-1.9,1-3.7,1.7-5.4
		c0.2-0.5,0.4-0.9,0.5-1.4c0.3-1-0.3-1.9-1.5-2c-0.3,0.7-0.7,1.4-1,2.1c-1,2.1-2.1,4.2-3.7,6c-1.9,2.2-4.1,3.9-7.1,4.4
		c-1.1,0.2-2.2,0.2-3.3,0c-2.5-0.4-4-2.2-4-4.8c0-1.2,0.2-2.3,0.5-3.4c0.7-2.6,2-5,4.1-6.8c1.8-1.6,3.8-2.3,6.1-1.7
		c2,0.5,3.1,2.3,2.7,4.3C53.4,20.9,53,22,52.3,23c-1.2,1.8-2.9,2.6-5.1,2.8c-0.7,0.1-1.4,0-2.1,0c-0.8,0-1,0.2-1.1,1
		c-0.2,1.5,0.3,2.9,2.3,3c1.3,0.1,2.6-0.3,3.7-0.9c2.3-1.3,3.9-3.2,5.2-5.5c0.7-1.3,1.4-2.7,2.1-4c0.4-0.7,0.3-1.4,0-2.1
		c-0.5-1.2-0.4-2.6,0.6-3.5c1.4-1.4,2.4-1.1,3.2-0.3c0.5,0.5,0.4,1,0.1,1.5c-0.1,0.2-0.2,0.3-0.2,0.5c-0.2,0.7-0.1,1.2,0.5,1.7
		c0.7,0.6,1.4,1.1,2.1,1.7c1.2,1.1,1.5,2.4,0.9,3.9c-0.7,1.7-1.3,3.4-1.9,5.1c-0.3,0.9-0.2,1.2,0.2,1.8c0.5,0.1,0.9-0.2,1.2-0.5
		c0.5-0.6,1.1-1.2,1.5-1.8c1.1-1.6,2.2-3.3,2.8-5.1c0.7-2,1.9-3.8,3.5-5.2c1.7-1.5,3.7-2.2,6-1.7c1.8,0.4,2.7,1.6,2.7,3.5
		c0,0.9-0.2,1.8-0.5,2.7c-0.3,0.9-1,1.4-2,1.4c-0.7,0-1.4,0.2-2.1-0.3c-0.2-1.4,1.1-2.4,0.9-3.8c-0.3-0.4-0.7-0.4-1-0.3
		c-0.4,0.2-0.9,0.4-1.3,0.7c-0.7,0.7-1.3,1.5-1.8,2.3c-0.9,1.5-1.4,3.2-1.8,4.9c-0.5,2.1,0.6,3.3,2.7,3.3c1.8,0,3.3-0.8,4.7-1.9
		c1.9-1.5,3.4-3.4,4.2-5.7c0.6-1.7,1.4-3.4,2-5.1c0.4-1.1,1.2-1.6,2.3-1.5c0.2,0,0.4,0,0.6,0c1.2,0,1.5,0.5,1.1,1.7
		c-1.2,2.9-2.4,5.8-3.5,8.7c-0.3,0.8-0.5,1.6-0.7,2.4c-0.1,0.3,0,0.6,0.1,0.9c0.7,0.3,1.1,0,1.5-0.3c0.6-0.5,1.1-1,1.6-1.6
		c1.7-2.1,2.7-4.5,3.6-6.9c0.4-1.1,0.9-2.2,1.3-3.3c0.4-1,1.1-1.6,2.2-1.5c0.1,0,0.2,0,0.4,0c1.6,0,1.9,0.4,1.3,1.9
		c-1.2,3.1-2.5,6.1-3.7,9.2c-0.3,0.7-0.4,1.5-0.5,2.2c-0.1,0.8,0.4,1.2,1.2,0.7c0.7-0.4,1.4-0.9,1.9-1.5c1.9-2.2,3.4-4.7,4.7-7.3
		c0.3-0.5,0.5-1.1,0.8-1.6c0.3-0.6,0.3-1.2,0-1.9c-0.6-1.4-0.1-3.1,1.1-4.1c1.1-0.8,1.9-0.5,2.6,0.1c0.6,0.5,0.4,1,0.2,1.6
		c-0.1,0.2-0.2,0.3-0.2,0.5c-0.2,0.7-0.1,1.2,0.5,1.7c0.7,0.6,1.4,1.1,2.1,1.7c1.2,1.1,1.5,2.4,0.9,3.9c-0.7,1.7-1.3,3.4-1.9,5.1
		c-0.3,0.9-0.2,1.3,0.2,1.8c0.5,0.1,0.9-0.2,1.2-0.5c0.5-0.6,1.1-1.2,1.5-1.8c1.1-1.6,2.1-3.2,2.8-5.1c0.7-2,1.9-3.8,3.5-5.2
		c1.8-1.6,3.8-2.3,6.2-1.7c1.7,0.5,2.8,2.1,2.6,3.8c-0.2,2-1,3.7-2.5,5c-1.1,1-2.5,1.5-4.1,1.6c-0.7,0-1.4,0-2.1,0
		c-0.5,0-0.8,0.2-1,0.8c-0.5,1.7,0.5,3.1,2.3,3.2c1.9,0.1,3.6-0.8,5.1-1.9c1.4-1.1,2.4-2.4,3.3-3.8c0.1-0.2,0.3-0.4,0.4-0.6
		c0.4-0.5,0.7-0.6,1.2-0.4C127.3,23.3,127.5,23.8,127.3,24.3z"/>
</g>
<g>
	<path fill="#9AD0C0" d="M-282.4,22.7c1-0.9,1.5-2,1.8-3.3c0.2-0.7-0.3-1.1-0.9-1c-0.5,0.1-0.9,0.3-1.3,0.6
		c-1.2,0.9-1.9,2.3-2.5,3.6c-0.1,0.2,0,0.5-0.1,0.7C-284.2,23.7-283.2,23.5-282.4,22.7z"/>
	<path fill="#9AD0C0" d="M-352.9,22.8c1.1-0.9,1.5-2.1,1.9-3.4c0.1-0.5-0.3-1-0.9-0.9c-0.5,0.1-1,0.3-1.4,0.6
		c-1.2,0.9-1.8,2.2-2.4,3.5c-0.1,0.2,0,0.5-0.1,0.7C-354.7,23.7-353.7,23.5-352.9,22.8z"/>
	<path fill="#9AD0C0" d="M-262.1,0h-139v58.9h121.5c3.5,0,6.6-2.1,8-5.3l17.5-41.6C-251.7,6.3-255.9,0-262.1,0z M-392.3,20.4
		c-0.6-0.6-0.6-1.3,0.1-1.8c0.8-0.7,6.2-3.1,9.6-4.6c0.4-0.2,0.8,0.2,0.6,0.6l-1,2.4c-0.1,0.3-0.8,1.1-1.3,1.3
		c-1.8,0.7-2.7,1.2-3.2,1.4c-1.3,0.5-2.3,1-2.5,1.1C-391,21.3-391.6,21-392.3,20.4z M-389.1,23.4c-0.6-0.6-0.5-1.3,0.2-1.8
		c0.4-0.3,2.1-1.1,4.1-1.9c0.4-0.1,0.7,0.2,0.6,0.6l-1.1,2.8c-0.1,0.2-0.4,0.5-0.6,0.6c-0.6,0.2-0.8,0.3-0.9,0.4
		C-387.9,24.4-388.5,24.1-389.1,23.4z M-366.1,38.1c-0.6,0.8-1.5,0.7-2.7-0.9c-1.4-1.8-1.8-4.3-1-6.5c0.3-0.9,0.7-1.9,1.1-2.8
		c1.8-4.5,3.6-9,5.4-13.5c0.2-0.4,0.3-0.8,0.4-1.2c0.1-0.4,0.1-0.9,0.1-1.5c-0.6,0-1.1,0-1.5,0.1c-1.9,0.7-3.5,1.9-4.3,3.9
		c-2,5-4,10-6.1,15.1c-0.6,1.4-2.4,2-3.7,1.4c-0.4-0.2-0.6-0.6-0.4-1.2c0.3-0.8,0.6-1.5,0.9-2.2c2-4.9,4-9.9,6-14.8
		c0.2-0.4,0.3-0.8,0.4-1.2c0-0.3-0.1-0.6-0.1-0.9c-0.7-0.2-1.2-0.2-1.7,0.1c-1.8,0.8-3.3,2-4,3.9c-1.9,4.8-3.9,9.7-5.8,14.5
		c-0.1,0.1-0.1,0.3-0.2,0.4c-0.7,1.6-2.5,2.1-4.2,1.1c0.1-0.5,0.2-1,0.3-1.4c2.3-5.9,4.7-11.7,7.1-17.6c0.1-0.3,0.2-0.5,0.3-0.9
		c-0.4,0-0.6,0-0.8,0c-2,0.8-8.9,3.9-10.2,4.4c-1.3,0.5-2.3,1-2.5,1.1c-0.9,0.5-1.6,0.2-2.2-0.5c-0.6-0.6-0.6-1.3,0.1-1.8
		c1.1-0.9,9.8-4.8,12-5.6c1.4-0.5,2.8-1,4.2-1.5c0.9-0.4,1.7-0.2,2.5,0.5c1.5,1.3,1.5,1.3,3.3,0.4c1.1-0.6,2.2-1,3.4-1.1
		c1.4,0,2.4,0.5,2.9,1.8c0.1,0.1,0.1,0.3,0.2,0.4c0,0,0.1,0.1,0.2,0.2c0.3-0.2,0.6-0.4,0.9-0.6c1-0.8,2.2-1.4,3.5-1.7
		c2.9-0.6,4.7,1.2,4,4c-0.4,1.6-1,3.2-1.7,4.7c-1.9,4.9-3.9,9.8-5.9,14.6c-0.2,0.5-0.4,1-0.5,1.6c-0.1,0.7,0.1,1.4,0.5,2
		C-365.3,36.1-365.3,37-366.1,38.1z M-273.8,24.3c0,0.1-0.1,0.2-0.1,0.3c-1.6,2.6-3.5,4.9-6.2,6.5c-2,1.1-4.1,1.5-6.2,1.1
		c-2.2-0.3-3.6-1.6-4-3.7c-0.9,0.9-1.7,1.8-2.6,2.6c-0.8,0.7-1.7,1.1-2.8,1.2c-2.4,0.1-3.5-1.5-3.3-3.6c0.1-1.1,0.4-2.1,0.8-3.1
		c0.4-1.2,0.9-2.3,1.4-3.5c0.4-0.9,0.2-1.5-0.6-2.1c-0.2-0.1-0.5-0.2-0.8-0.3c-0.4,0.8-0.7,1.5-1.1,2.1c-1.2,2.4-2.5,4.8-4.3,6.9
		c-1,1.3-2.2,2.4-3.7,3.2c-1,0.5-1.9,0.6-3,0.4c-0.9-0.1-1.6-0.6-2-1.4c-0.1-0.3-0.3-0.5-0.5-0.9c-0.4,0.3-0.8,0.6-1.1,0.9
		c-1.2,1-2.5,1.6-4.1,1.4c-1.3-0.2-2.2-1.2-2.4-2.4c0-0.2-0.1-0.5-0.1-0.8c-0.2,0.2-0.4,0.3-0.6,0.5c-2.3,2-5,3.1-8.1,2.8
		c-2.4-0.2-3.9-1.5-4.4-3.8c-0.8,0.9-1.6,1.8-2.5,2.6c-0.8,0.7-1.7,1.2-2.8,1.2c-2.5,0.2-3.6-1.5-3.4-3.8c0.2-1.9,1-3.7,1.7-5.4
		c0.2-0.5,0.4-0.9,0.5-1.4c0.3-1-0.3-1.9-1.5-2c-0.3,0.7-0.7,1.4-1,2.1c-1,2.1-2.1,4.2-3.7,6c-1.9,2.2-4.1,3.9-7.1,4.4
		c-1.1,0.2-2.2,0.2-3.3,0c-2.5-0.4-4-2.2-4-4.8c0-1.2,0.2-2.3,0.5-3.4c0.7-2.6,2-5,4.1-6.8c1.8-1.6,3.8-2.3,6.1-1.7
		c2,0.5,3.1,2.3,2.7,4.3c-0.2,1.2-0.7,2.3-1.3,3.3c-1.2,1.8-2.9,2.6-5.1,2.8c-0.7,0.1-1.4,0-2.1,0c-0.8,0-1,0.2-1.1,1
		c-0.2,1.5,0.3,2.9,2.3,3c1.3,0.1,2.6-0.3,3.7-0.9c2.3-1.3,3.9-3.2,5.2-5.5c0.7-1.3,1.4-2.7,2.1-4c0.4-0.7,0.3-1.4,0-2.1
		c-0.5-1.2-0.4-2.6,0.6-3.5c1.4-1.4,2.4-1.1,3.2-0.3c0.5,0.5,0.4,1,0.1,1.5c-0.1,0.2-0.2,0.3-0.2,0.5c-0.2,0.7-0.1,1.2,0.5,1.7
		c0.7,0.6,1.4,1.1,2.1,1.7c1.2,1.1,1.5,2.4,0.9,3.9c-0.7,1.7-1.3,3.4-1.9,5.1c-0.3,0.9-0.2,1.2,0.2,1.8c0.5,0.1,0.9-0.2,1.2-0.5
		c0.5-0.6,1.1-1.2,1.5-1.8c1.1-1.6,2.2-3.3,2.8-5.1c0.7-2,1.9-3.8,3.5-5.2c1.7-1.5,3.7-2.2,6-1.7c1.8,0.4,2.7,1.6,2.7,3.5
		c0,0.9-0.2,1.8-0.5,2.7c-0.3,0.9-1,1.4-2,1.4c-0.7,0-1.4,0.2-2.1-0.3c-0.2-1.4,1.1-2.4,0.9-3.8c-0.3-0.4-0.7-0.4-1-0.3
		c-0.4,0.2-0.9,0.4-1.3,0.7c-0.7,0.7-1.3,1.5-1.8,2.3c-0.9,1.5-1.4,3.2-1.8,4.9c-0.5,2.1,0.6,3.3,2.7,3.3c1.8,0,3.3-0.8,4.7-1.9
		c1.9-1.5,3.4-3.4,4.2-5.7c0.6-1.7,1.4-3.4,2-5.1c0.4-1.1,1.2-1.6,2.3-1.5c0.2,0,0.4,0,0.6,0c1.2,0,1.5,0.5,1.1,1.7
		c-1.2,2.9-2.4,5.8-3.5,8.7c-0.3,0.8-0.5,1.6-0.7,2.4c-0.1,0.3,0,0.6,0.1,0.9c0.7,0.3,1.1,0,1.5-0.3c0.6-0.5,1.1-1,1.6-1.6
		c1.7-2.1,2.7-4.5,3.6-6.9c0.4-1.1,0.9-2.2,1.3-3.3c0.4-1,1.1-1.6,2.2-1.5c0.1,0,0.2,0,0.4,0c1.6,0,1.9,0.4,1.3,1.9
		c-1.2,3.1-2.5,6.1-3.7,9.2c-0.3,0.7-0.4,1.5-0.5,2.2c-0.1,0.8,0.4,1.2,1.2,0.7c0.7-0.4,1.4-0.9,1.9-1.5c1.9-2.2,3.4-4.7,4.7-7.3
		c0.3-0.5,0.5-1.1,0.8-1.6c0.3-0.6,0.3-1.2,0-1.9c-0.6-1.4-0.1-3.1,1.1-4.1c1.1-0.8,1.9-0.5,2.6,0.1c0.6,0.5,0.4,1,0.2,1.6
		c-0.1,0.2-0.2,0.3-0.2,0.5c-0.2,0.7-0.1,1.2,0.5,1.7c0.7,0.6,1.4,1.1,2.1,1.7c1.2,1.1,1.5,2.4,0.9,3.9c-0.7,1.7-1.3,3.4-1.9,5.1
		c-0.3,0.9-0.2,1.3,0.2,1.8c0.5,0.1,0.9-0.2,1.2-0.5c0.5-0.6,1.1-1.2,1.5-1.8c1.1-1.6,2.1-3.2,2.8-5.1c0.7-2,1.9-3.8,3.5-5.2
		c1.8-1.6,3.8-2.3,6.2-1.7c1.7,0.5,2.8,2.1,2.6,3.8c-0.2,2-1,3.7-2.5,5c-1.1,1-2.5,1.5-4.1,1.6c-0.7,0-1.4,0-2.1,0
		c-0.5,0-0.8,0.2-1,0.8c-0.5,1.7,0.5,3.1,2.3,3.2c1.9,0.1,3.6-0.8,5.1-1.9c1.4-1.1,2.4-2.4,3.3-3.8c0.1-0.2,0.3-0.4,0.4-0.6
		c0.4-0.5,0.7-0.6,1.2-0.4C-273.8,23.3-273.6,23.8-273.8,24.3z"/>
</g>
<text transform="matrix(1 0 0 1 -394.2556 51.2256)" fill="#010202" font-family="'Roboto-ThinItalic'" font-size="14">Fixed Gear Bikes</text>
</svg>
