<?xml version="1.0" encoding="utf-8"?>
<!-- Generator: Adobe Illustrator 18.1.1, SVG Export Plug-In . SVG Version: 6.00 Build 0)  -->
<svg version="1.1" id="Calque_1" xmlns="http://www.w3.org/2000/svg" xmlns:xlink="http://www.w3.org/1999/xlink" x="0px" y="0px"
	 viewBox="0 0 245.1 41.8" enable-background="new 0 0 245.1 41.8" xml:space="preserve">
<g>
	<path fill="#FFFFFF" d="M56.2,0c-1.7,0-3,1.3-3,3v2.2c0,8.1-3.2,16.1-8.9,22.7c-2.1-5.8-5.8-10.9-10.7-14.6c-1-0.7-2-1.6-3.3-1.8
		c-1.5-0.2-2.6,0.4-3.8,1.3c-2.1,1.5-4,3.2-5.7,5.2c-2.5,2.9-4.5,6.3-5.8,10C9.2,21.2,6,13.3,6,5.2V3c0-3.9-6-3.9-6,0v2.2
		c0,10.9,4.7,21.4,13.3,29.7c-0.2,1.6-0.7,3.9,0.2,5.4c0.7,1.2,2.1,1.7,3.4,1.4c1.3-0.4,2.1-1.6,2.2-2.9c0.1-1.4,0.1-2.8,0.3-4.2
		c1.1-6.7,4.8-12.7,10.2-16.7c5.4,4,9.1,10.1,10.2,16.7c0.2,1.4,0.3,2.8,0.3,4.2c0.1,1.3,0.8,2.5,2.2,2.9c1.3,0.4,2.7-0.2,3.4-1.4
		c0.9-1.5,0.4-3.8,0.2-5.4c8.6-8.3,13.3-18.8,13.3-29.7V3C59.2,1.3,57.8,0,56.2,0z"/>
	<path fill="#FFFFFF" d="M244.2,25.2c-5.5-6.6-13.8-10.3-22.2-11.4c4.4-5.1,9.5-7.8,14.5-7.8h1.6c3.9,0,3.9-6,0-6h-1.6
		c-4.9,0-9.6,1.8-13.5,4.7c-2.3,1.7-4.3,3.6-6.1,5.8c-1,1.2-1.9,2.4-2.8,3.7c-0.8,1.1-2,2.5-2.2,3.9c-0.2,1.4,0.7,2.8,2,3.3
		c1.7,0.6,3-0.5,3.8-1.8c7.4,0.3,15.1,2.8,20.4,8.1c-3.3,3.2-7.5,5.5-11.9,6.7c-2.2,0.6-4.5,1-6.8,1.2c-1.5,0.1-3.1,0.1-4.7,0.2
		c-3.5,0-4.1,5.1-0.7,5.9c1,0.2,2.1,0.1,3.1,0c1.4-0.1,2.8-0.2,4.3-0.4c7.2-0.9,14-3.4,19.5-8.2C243.2,31.3,246.7,28.2,244.2,25.2
		C241.9,22.5,245.3,26.6,244.2,25.2z"/>
	<path fill="#FFFFFF" d="M69.1,0c-1.7,0-3,1.3-3,3v35.8c0,3.9,6,3.9,6,0V3C72.1,1.3,70.7,0,69.1,0z"/>
	<path fill="#FFFFFF" d="M127.3,0c-1.7,0-3,1.3-3,3v35.8c0,3.9,6,3.9,6,0V3C130.3,1.3,129,0,127.3,0z"/>
	<path fill="#FFFFFF" d="M104.3,23.9c3.4-3.2,6.1-7.2,7.7-11.7c0.7-1.9,1.2-3.9,1.5-5.9c0.2-1.5,0.7-3.6-0.2-5
		c-1-1.5-3.1-1.8-4.5-0.6c-1.3,1.1-1,3-1.3,4.6c-0.6,4.3-2.4,8.5-5.2,11.9c-2.3,2.8-5.3,5.1-8.6,6.7L93.6,24c-0.7,0.4-1.4,0.7-2.1,1
		V2.9c0-3.9-6-3.9-6,0v23.6c-1.7,0.2-3.4,0.2-5.2,0.3c-1.7,0.1-3.1,1.4-3,3.2c0.2,3.9,5.6,2.7,8.1,2.5v6.2c0,3.9,6,3.9,6,0v-7.3
		c1.7-0.5,3.4-1.2,5-2.1c0.9-0.5,2-1,3-1.7l13.9,13.3c2.8,2.7,6.9-1.7,4.2-4.3L104.3,23.9z"/>
	<path fill="#FFFFFF" d="M169.1-0.1c-1.7,0-3,1.3-3,3v16.5c-4.8-7.2-12.5-12.3-21-14V2.9c0-3.9-6-3.9-6,0v35.8c0,3.9,6,3.9,6,0V11.5
		c5.2,1.3,10,4.2,13.6,8.1c4.8,5.3,6.9,12,7.4,19c0.1,1.6,1.3,3,3,3c1.6,0,3-1.4,3-3V2.9C172.1,1.2,170.8-0.1,169.1-0.1z"/>
	<path fill="#FFFFFF" d="M206.1,25.1c-1.7-2.8-6.1-1.1-5.5,2.1c0.2,1,0.9,2,1.3,3c0.6,1.8,0.9,3.6,1.1,5.5h-20.9
		c0.2-11.3,5.6-21.9,13.7-29.6c1-1,2-1.8,2-3.3c-0.1-1.2-0.9-2.3-2.1-2.7c-1.4-0.5-2.5,0.2-3.5,1.1c-1.1,1-2.1,2-3.1,3.1
		c-3.8,4.1-7,8.9-9.3,14.1c-2.5,5.6-3.8,11.7-3.8,17.9v2.5c0,1.7,1.3,3,3,3h27c4.1,0,3-5.6,2.7-8.1
		C208.4,30.7,207.6,27.7,206.1,25.1C205.2,23.7,206.8,26.3,206.1,25.1z"/>
</g>
</svg>
