<?xml version="1.0" encoding="utf-8"?>
<!-- Generator: Adobe Illustrator 18.1.1, SVG Export Plug-In . SVG Version: 6.00 Build 0)  -->
<svg version="1.1" id="Calque_1" xmlns="http://www.w3.org/2000/svg" xmlns:xlink="http://www.w3.org/1999/xlink" x="0px" y="0px"
	 viewBox="0 0 85 56.7" enable-background="new 0 0 85 56.7" xml:space="preserve">
<path fill="#FFFFFF" d="M81.5,7.5c-0.1,0.1-0.2,0.1-0.4,0.2c0-0.5,0-0.9,0-1.3c0.2-0.1,0.3-0.3,0.2-0.5l-0.3-0.5
	c-0.2,0-0.4-0.1-0.6,0.1c0,0.1,0.1,0.3-0.2,0.3C80,5.6,80.3,5.2,80,5c-0.4,0.2-0.4,0.5-0.5,0.8c0,0.1-0.2,0.7-0.3,0.7
	c-0.4-0.3,0.1-1,0.1-1.4c-0.2,0-0.3,0.1-0.5,0.1c0.3,0.3,0,0.4-0.1,0.7c-0.1,0.4,0,0.8,0,1.2c-0.2,0.2-0.3,0.3-0.5,0.5
	c0,0.3,0,0.4-0.2,0.7c0.1,0.1,0.1,0.1,0.2,0.2c-0.1,0.2-0.7,0.2-0.9,0.3c0-0.4-0.2-0.7-0.4-1.1c-0.2,0.5-0.4,1-0.6,1.5
	c0,0.4,0,0.8,0,1.2c-0.1,0.1-0.2,0.2-0.3,0.2c0,0.2,0,0.4-0.1,0.6c0.1,0.1,0.1,0.2,0.2,0.3c-0.6,0.2-0.4,1.3-0.7,1.7l-0.2,0.1
	c0,0.2,0.3,0.3,0.2,0.5c-0.1,0.1-0.2,0.1-0.3,0.2L75,15c-0.5,0.3-0.3,0.8-0.5,1.2c-0.3,0.3-0.2,0.3-0.1,0.7
	c-0.4,1.9-0.5,1.9-0.3,2.3c-0.2,0.9-0.5,1.7-0.9,2.5C73.1,22,73,22.1,73,22.3c-0.1,0.4,0.2,0.3-0.3,0.5c-0.2,0.5-0.3,0.9-0.5,1.4
	c-0.5,0.3-0.1,0.3-0.3,0.7c-0.1,0.2-0.6,0.6-0.8,0.7c-0.1,0.3-0.3,0.6-0.4,1c-0.5,0.1-0.4,0.6-0.7,0.8c0,0.1,0.1,0.2,0.1,0.4
	c-0.6,0.3-0.6,0.8-1,1.3c-0.2,0.2-0.4,0.3-0.6,0.6c-0.2,0.2-0.2,0.6-0.4,0.8c-0.3,0.4-0.7,0.6-0.9,1.1c-0.1,0.3-0.1,1-0.5,1
	c-0.2-0.2,0.3-0.3-0.1-0.5c-0.2,0.1-0.2,0.3-0.3,0.4c0.1,0.1,0.2,0.3,0.3,0.4c-0.2,0-0.4,0.1-0.6,0.1c-0.5,0.8-1.1,1.6-1.7,2.3
	c-0.4,0.6-0.8,1.3-1.5,1.5c0,0.2,0,0.3,0.1,0.4c-0.2,0-0.4,0-0.4,0.2c0.1,0.1,0.1,0.3,0.3,0.5c-0.2-0.1-0.3-0.2-0.5-0.2
	c0,0.1,0,0.2,0,0.3c-0.1,0-0.2,0-0.3,0c-0.2,0.1-0.3,0.6-0.7,0.5c-0.2,0.2-0.4,0.4-0.6,0.7c-1-1.2-1.3-3-2-4.4
	c-0.3-0.2-0.5-0.3-0.8-0.5c0.1-0.7-0.5-1.2-0.7-1.7c-0.2-0.1-0.3-0.2-0.4-0.2c0-0.2,0-0.3,0-0.4c-0.5-0.3-0.5-0.3-0.6-0.9
	c-0.1-0.1-0.3-0.1-0.4-0.2c-0.2-0.4-0.7-0.8-0.6-1.4c-1-0.3-0.7-1.5-1.5-1.8c-0.1,0-0.2,0.1-0.3,0.1c-0.2-0.3-0.4-0.5-0.6-0.7
	c0.1-0.2,0.1-0.3,0.2-0.5c-0.2-0.1-0.4-0.1-0.6,0c-0.6-0.7-1.2-1.3-1.8-1.9c0-0.2-0.1-0.3-0.1-0.4c-0.6-0.2-0.9-0.4-1.3-1
	c-0.2-0.4-0.9-1-1.5-1.2c-0.1-0.1-0.3-0.1-0.4-0.1c-1.3-1-2.7-1-4.2-1.3c-0.4,0.1-0.8,0.2-1.2,0.4c-0.4,0.2-0.8,0.4-1.1,0.6
	c-0.5,0.3-1,0.6-1.6,0.8c-2.8,2-5.4,4.4-7.8,7c0,0.2-0.1,0.3-0.1,0.4c-0.7,0.2-1,0.8-1.2,1.4c-0.1,0.1-0.3,0.1-0.4,0.2
	c-0.3,0.4-0.7,0.8-0.7,1.2c-1.1,1.5-2.1,3-3,4.6c-0.5,0.3-0.5,0.3-0.6,1c-0.1,0.1-0.2,0.1-0.3,0.2c-0.3,0.5-0.6,1.1-0.8,1.6
	c-0.1,0.1-0.2,0.1-0.2,0.2c-0.1,0-0.1-0.2-0.1-0.3c-0.1-0.1-0.3-0.1-0.5-0.2c-0.1-0.1-0.2-0.2-0.4-0.4c-0.1,0-0.2,0-0.3,0
	c0-0.5-0.7-1.4-1.1-1.5c-0.1,0.1-0.2,0.1-0.3,0.2c-0.1-0.3-0.1-0.6-0.2-0.9c-0.1,0-0.3,0-0.4,0c0-0.1,0-0.2,0-0.3l-0.4-0.5
	c0.1-0.5,0-0.5-0.5-0.3c-0.4-0.2-0.2-0.8-0.6-1.1c-0.3-0.3-0.5-0.7-0.7-1c0-0.1,0.1-0.2,0.1-0.3l-0.3,0c0-0.1,0-0.2,0.1-0.3
	c-0.5-0.6-0.9-1.3-1.3-2c0.1-0.3-0.2-1.2-0.6-1.2l-0.1,0.3c-0.3,0-0.2-0.3-0.2-0.4c0-0.4-0.6-0.7-0.4-1.2c-0.1,0-0.3-0.1-0.4-0.1
	c0-0.2,0-0.4,0-0.5C15.2,28,15,28,14.9,27.9c0.1-0.6-0.1-0.6-0.6-0.4c0.1-0.1,0.3-0.7,0.2-0.9c-0.1-0.2-0.3-0.2-0.4-0.4
	c0-0.1,0.1-0.3,0.1-0.4c-0.1-0.1-0.3-0.2-0.3-0.3c-0.1-0.2-0.1-0.4-0.2-0.7c0-0.1,0.1-0.2,0.1-0.3c-0.1-0.3-0.3-0.6-0.4-0.9
	c-0.1,0-0.2-0.1-0.2-0.1c0.1-0.5-0.2-0.8-0.4-1.2c-0.5,0-0.3-0.3-0.3-0.6c-0.1,0-0.2-0.1-0.2-0.1c-0.2-0.5-0.4-1-0.6-1.5
	c0.2-0.4,0.2-0.4-0.2-0.6c-0.1-0.2-0.1-0.4-0.2-0.6c0.1-0.1,0.1-0.2,0.1-0.3c-0.1,0-0.2-0.1-0.3-0.1c-0.1-0.4-0.2-1-0.5-1.4
	c0-0.1-0.4-0.5-0.4-0.6c0-0.1,0.1-0.2,0.2-0.3c-0.1-0.4-0.1-0.9-0.4-1.2c-0.1,0-0.1-0.1-0.2-0.1c0.1-0.1,0.1-0.2,0.2-0.3
	c-0.5-0.2-0.1-0.4-0.1-0.7C10,14,9.7,14,9.7,13.7c0.1-0.1,0.1-0.2,0.2-0.3c-0.1-0.6-0.2-1.1-0.3-1.7c-0.1-0.1-0.2-0.1-0.2-0.1
	c0.3-0.6,0-1.3-0.1-2C9.1,9.5,9,9.5,9,9.4c0.2-0.2,0.2-0.2,0-0.4l0.2-0.2c-0.3-0.3-0.3-0.3,0-0.6C9,8,9,7.8,9,7.6
	C8.8,7.5,8.8,7.5,9,7.2C8.9,7,9.1,6.6,8.7,6.3c0-0.3-0.2-1,0-1.2c0.3-0.4,0-0.4-0.3-0.5c0-0.4,0-0.9,0-1.4C8.1,2.8,8.3,2.3,7.9,2
	l0-0.9c0.1-0.2,0-0.4-0.1-0.5C7.6,0.7,7.5,0.8,7.4,0.9c0,0.3,0.1,0.7-0.1,0.9C7.2,1.8,7,1.7,6.9,1.6c0-0.3,0.1-0.5-0.1-0.8
	C6.7,1,6.7,1.1,6.6,1.3C6.5,1.2,6.4,1.1,6.3,1.1C6,1.2,6,1.6,5.7,1.8c0,0.3,0,0.6,0,0.8C5.3,2.9,5.6,3.4,5.5,3.7
	C5.2,4,5.2,4,5.5,4.4C5.4,4.4,5.3,4.5,5.3,4.6c0,0.3,0,0.6,0,0.9L5.2,5.4C5.1,5.5,5,5.6,5,5.7C4.6,5.6,5,5.2,4.6,5.1
	c0,0.4,0,0.8,0,1.1C4.5,6.4,4.4,6.4,4.4,6.5C4.7,6.8,4.7,6.8,4.5,7C4.3,7.5,4.7,7.9,4.2,8.2c0.1,0.7,0.3,1.6,0,2.3
	c0.1,0.7,0.2,1.5,0.3,2.3c0.1,0.1,0.2,0.1,0.2,0.2c-0.3,0.9,0.2,2.1,0.4,3C5,16.4,5,16.3,5.4,16.6c0.1,0.5,0.3,1,0.2,1.5
	c0.1,0,0.1,0.1,0.2,0.1c0.1,0.6,0.3,1.1,0.5,1.6c-0.1,0.6,0.1,1.2,0.3,1.8c0,0.1-0.1,0.2-0.1,0.3c0.4,1,0.8,2.1,1.2,3.1
	c0.1,0,0.2,0.1,0.3,0.1c0,0.1-0.1,0.2-0.1,0.2l0.5,1.3c0,0,0,0-0.1,0.1c-0.5-0.2-1.1-2.3-1.3-2.9c-0.4-1.1-0.8-2.2-1.2-3.3
	c-0.2-0.1-0.5-0.1-0.3-0.5c0.1,0,0.2,0,0.4,0.1c0-0.3-0.1-0.6-0.3-0.8c-0.1,0-0.3,0-0.4,0c-0.2-0.5-0.4-1-0.2-1.6
	c-0.1-0.1-0.2-0.1-0.3-0.2c-0.1-0.3-0.1-0.6-0.2-0.8c0.1-0.2,0.4-0.4,0.3-0.7C4.6,16,3.6,15.9,4,15.5c0.2-0.1,0.4,0,0.5-0.2
	c0-0.3,0-0.5-0.3-0.6l0.2-0.3c-0.1-0.2,0-0.5-0.2-0.7c-0.1,0.1-0.2,0.2-0.3,0.2c-0.3-0.6,0.9-0.7-0.2-0.9c0.1-0.1,0.1-0.2,0.2-0.3
	c-0.2,0-0.2-0.2-0.5-0.2c0,0.3,0,0.5,0.1,0.7c-0.1,0.1-0.1,0.2-0.2,0.3c0.1,0.1,0.2,0.1,0.2,0.2c-0.1,0.1-0.1,0.2-0.2,0.2
	c0.1,0.1,0.2,0.1,0.3,0.2c0,0.1,0.1,0.3,0.1,0.4l-0.2,0.3c0.2,1,0.4,1.9,0.7,2.8c0.1,0.1,0.2,0.1,0.3,0.2c0,0.1-0.1,0.1-0.2,0.3
	c0.1,0.4,0.2,0.9,0.4,1.3l0.3,0.8c0.3,0.8,0.3,1.6,0.5,2.4c0.3,0.8,0.6,1.6,0.9,2.5c0.1,0,0.2,0.1,0.3,0.1c0.1,0.4,0.5,0.6,0.2,1.1
	c0.2,0.5,0.5,1.1,0.7,1.6c0,0.1-0.1,0.2-0.1,0.3c0,0.2,0.3,0.2,0.4,0.3c0,0.6,0.3,1,0.5,1.5c-0.2,0.7,0.5,1.5,0.9,2.1
	c0,0.2,0,0.3-0.1,0.3c0.1,0,0.2,0,0.3,0.1c0,0.1-0.1,0.2-0.1,0.3c0.2,0.4,0.4,0.8,0.7,1.2c-0.1,0.3,0,0.1,0.1,0.5
	c0,0.1,0.1,0.6,0.2,0.7c0.2,0.6,0.7,1.2,1.1,1.7c0.2,0,0.3,0,0.5,0.1c0-0.4-0.5-0.6-0.5-1c0.2-0.2,0.2,0.3,0.5,0.1
	c-0.2-0.2-0.4-0.8-0.6-0.8c-0.1,0-0.2,0.1-0.3,0.1c-0.2-0.2-0.4-0.4-0.4-0.9c0.2,0.2,0.4,0.4,0.6,0.6c0.2-0.3-0.3-0.4-0.1-0.7
	c0.4,0.1,1.1,1.6,1.3,1.9l1.3,1.8c0.1,0,0.2,0,0.4,0.1c0.1,0.1,0.2,0.2,0.3,0.4c-0.1,0.2,0,0.3-0.2,0.5c-0.2-0.2-0.3-0.4-0.5-0.6
	l-0.5-0.7c-0.3-0.4-0.6-1.1-1.1-1.3c0.3,1.1,1.4,2.3,2.1,3.2c0.6,0.8,1.3,1.8,2.1,2.3c0-0.2-0.1-0.3-0.1-0.5c0.8,0.7,1,0.9,0.8,1.1
	c-0.2-0.1-0.3-0.3-0.5-0.4c-0.2,0.1-0.3,0.2-0.3,0.3c0.4-0.1,0.4,0.3,0.8,0.4c0.4-0.2,0.4-0.2,0.5,0.2c-0.1,0-0.2,0-0.4,0
	c0.1,0.3,0.4,0.4,0.5,0.7c0,0.1,0,0.2,0,0.2c0.7,0.8,1.4,1.5,2.2,2.3c0,0.2-0.1,0.4-0.1,0.6c0.3,0.3,0.6,0.6,0.8,0.8
	c0.1,0,0.2,0,0.3,0c0,0.1,0,0.2,0,0.3c0.1,0,0.1,0,0.2,0c0,0.1-0.1,0.1-0.1,0.2l0.1,0.3c-0.2,0.4-0.4,0.3-0.3,0.8c0,0.5,0,0.6-0.3,1
	c0,0.1,0.1,0.2,0.1,0.4c-0.2,0.9-0.6,2.2-0.4,3.1c0.1-0.1,0.2-0.2,0.4-0.4c0.1,0.5-0.2,1.1,0,1.6c0.1-0.3,0.2-0.5,0.3-0.7
	c0.3-0.1,0.6,0.2,0.8-0.3c0.2,0.3,0.4,0.6,0.5,0.8c0,0.4-0.1,0.7,0.1,0.9c0.3-0.3,0-1,0.5-1.2c0-0.3,0.1-0.7,0.1-1
	c0.1-0.1,0.2-0.2,0.3-0.3c0.1-0.9,0.1-0.9,0.4-1.1c-0.2,1-0.5,2.1-0.4,3.2c0.2-0.2,0.3-0.4,0.4-0.6c0-0.2,0.1-0.4,0.1-0.7
	c0.2-0.1,0.3-0.1,0.4-0.2c0.1-0.1,0.1-0.3,0.2-0.4c0.2,0.1-0.2,0.6,0.2,0.6c0.1-0.4,0.2-0.8,0.2-1.2c-0.1-0.1-0.3,0-0.3-0.3
	c0.1-0.1,0.3-0.3,0.4-0.4c0.1,0.1,0.1,0.2,0.2,0.4c0.5-0.5,0.1-1.6,0.8-2c0-0.5,0.5-1,0.7-1.4c0.2-0.3,0.3-1,0.7-1.2
	c0.2-0.5,0.4-1.1,0.6-1.6c0-0.1-0.1-0.2-0.1-0.3c0.1-0.1,0.2-0.2,0.3-0.3c0.5-1.2,0.9-2.9,2-3.8c1.8-3.6,4.3-7,7.2-10
	c0.1,0,0.3-0.1,0.4-0.1c0-0.1,0.1-0.3,0.1-0.4c0.1,0,0.2,0,0.4-0.1c0.3-0.2,0.6-0.5,0.9-0.8c1-0.1,1.4-1.2,2.3-1.4
	c0.3-0.3,0.7-0.5,1-0.8l0.5-0.4l0.3-0.2c0,0,0-0.2,0-0.3l0,0c0.1,0,0.1,0.1,0.2,0.1c0.2-0.1,0.3-0.2,0.5-0.1c0-0.1,0.1-0.1,0.1-0.2
	c0.5,0.1,1.1,0.8,1.3,1.2c0.3,0.5,0.7,0.8,1.1,1.3c0.2,1,1.4,1.4,1.6,2.4c0,0,0.1,0,0.1,0l0.3,0c0.1,0.5,0.1,0.5,0.6,0.8l0,0.3
	c0.5,0.3,0.5,0.3,0.5,0.8c0.1,0,0.2,0.1,0.4,0.1c0,0.2,0,0.4,0,0.5c0.7,0.4,0.6,0.7,0.9,1.4c0.3,0.8,0.9,1.6,1.3,2.4
	c0.7,1.6,1.3,3.2,1.8,4.8c-0.1,0.2-0.1,0.3-0.1,0.4c0.1,0.1,0.2,0.1,0.3,0.2c0,0.1-0.1,0.2-0.1,0.4c0.1,0.2,0.1,0.4,0.1,0.6
	c0.1,0.1,0.2,0.2,0.3,0.3c0.2,0.8,0.3,1.6,0.4,2.4c-0.1,0.2-0.2,0.4-0.4,0.6c0.1,0.1,0.2,0.2,0.2,0.3c0,0.4,0.3,0.9-0.1,1.2
	c0.1,0.1,0.2,0.2,0.2,0.3c-0.1,0.1-0.1,0.2-0.2,0.3c0.3,0.5,0.4,1.1,0.2,1.3l-0.2,0c-0.2,0.3,0.1,1,0.1,1.3c0.2,0.2,0.2,0.5,0.5,0.5
	c0.3-0.1,0.3-0.5,0.7-0.6c0,0.4,0,0.8,0,1c0.1,0.2,0.6,1.1,0.8,1.1c0.1-0.1,0.1-0.1,0.2-0.2c0.2,0.5,0.6,0.8,1,1.1
	c0.1-0.1,0.4-0.4,0.5-0.3c0.1,0.1,0.1,0.3,0.2,0.3c0.4,0,0.8,0.1,1,0.1c0.2-0.2,0.3-0.4,0.5-0.6c0.6,0,1.1-0.8,1.6-0.6
	c0.3-0.2,0.6-0.4,0.8-0.6c0.3-0.3,0.5-0.8,0.7-1.2c0.1,0,0.2,0,0.3,0l0.3-0.8c0.1-0.3,0.2-0.6,0.3-0.9c-0.2-0.5-0.2-0.7-0.1-1.2
	c-0.2-0.4-0.3-0.8-0.5-1.1c0.1,0,0.2-0.1,0.3-0.1c0.1,0.1,0.2,0.1,0.3,0.2c0.5-0.4,1.1-1.4,1.1-2c0.3,0,0.8-0.2,0.7-0.7
	c0.7-0.3,0.6-0.6,1-1.1c0.1,0,0.2,0,0.3,0c0.2-0.2,0.4-0.5,0.6-0.7c0.2-0.8,0.8-1.3,1.3-1.9c-0.2-0.4,0.1-0.5,0.4-0.6
	c0-0.1,0-0.2,0-0.3c0.1,0,0.2,0,0.4-0.1c0.2-0.4,0.6-0.6,0.7-1c0-0.1,0-0.2,0-0.2c0.5-0.7,0.9-1.3,1.4-2c0-0.4,0-0.4,0.4-0.6
	c0-0.1,0-0.2,0-0.3c0.3-0.1,0.5,0,0.7-0.2c0.1-0.2,0-0.4,0.1-0.7c0.1-0.2,0.4-0.2,0.6-0.4c0.2-0.3,0-0.4,0.1-0.7
	c0.1-0.3,0.3-0.3,0.5-0.5l-0.1-0.2c0.8-0.4,0.5-1.3,0.9-2c0-0.1-0.1-0.2-0.1-0.3c0.4-0.2,0.4-0.2,0.3-0.6c0.3-0.6,0.6-1.1,0.9-1.7
	c0.1-0.2,0.1-0.3,0.3-0.5c0.1-0.1,0.3-0.1,0.3-0.3c0-0.1-0.1-0.2-0.1-0.3c0.1-0.2,0.2-0.4,0.3-0.7c0-0.1-0.1-0.2-0.1-0.3
	c0.2-0.5,0.4-1,0.6-1.5c0.3-0.3,0.7-0.8,0.5-1.3c0.2-0.5,0.3-1.2,0.6-1.6c0.1,0,0.1-0.1,0.2-0.1c0-0.1-0.1-0.2-0.1-0.3
	c0-0.5,0.5-0.9,0.2-1.5c0.2-0.8,0.4-1.7,0.7-2.5c0.1-0.1,0.2-0.1,0.3-0.2c-0.3-0.2-0.1-0.5-0.1-0.8c0-0.3-0.2-0.5-0.1-0.8
	c0.1-0.2,0.3-0.4,0.4-0.6c0.1-0.3-0.1-0.5-0.1-0.7c0.1-0.1,0.1-0.1,0.2-0.2c0.1-0.3,0-0.7,0.4-0.9c0.1-0.5,0.1-0.9,0.2-1.3
	c0.4-0.6,0.3-1.2,0.4-1.9c0.3-0.5,0.3-0.7,0.2-1.3c-0.1-0.6,0-1.1,0.2-1.7c-0.1-0.1-0.2-0.2-0.2-0.3c0.1-0.1,0.2-0.2,0.2-0.3
	C81.5,7.8,81.7,7.6,81.5,7.5C81.4,7.5,81.7,7.6,81.5,7.5z M8.3,27.6c0,0,0-0.1,0-0.1c0.4-0.4,0.5,0.1,0.4,0.4
	c0.1,0.2,0.2,0.4,0.4,0.7C8.6,28.6,8.5,28,8.3,27.6z M10.6,34.1c-0.2-0.1-0.3-0.2-0.3-0.4l0.1-0.3c-0.2-0.3-0.3-0.6-0.5-0.9
	C10.3,32.4,10.8,33.6,10.6,34.1C10.5,34,10.6,34,10.6,34.1z M10.4,32.6c-0.2-0.2-0.2-0.5-0.5-0.5l-0.5-0.7c-0.2-0.3-0.8-1-0.6-1.4
	c0.4,0.4,0.5,0.9,0.8,1.3c0.4,0-0.5-1.4-0.6-1.6c0.5,0,1.2,1.6,1.4,2.1c-0.3,0.6,0.5,0.9,0.4,1.4C10.6,33.1,10.6,32.8,10.4,32.6
	C10.3,32.4,10.6,32.8,10.4,32.6z M21.1,46.7c0.1,0,0.1-0.1,0.2-0.1c0,0.2,0,0.4,0,0.5C21.2,47,21.1,46.9,21.1,46.7
	C21.2,46.7,21.1,46.9,21.1,46.7z"/>
</svg>
