<?xml version="1.0" encoding="utf-8"?>
<!-- Generator: Adobe Illustrator 18.1.1, SVG Export Plug-In . SVG Version: 6.00 Build 0)  -->
<svg version="1.1" id="Calque_1" xmlns="http://www.w3.org/2000/svg" xmlns:xlink="http://www.w3.org/1999/xlink" x="0px" y="0px"
	 viewBox="0 0 59.2 41.8" enable-background="new 0 0 59.2 41.8" xml:space="preserve">
<path fill="#FFFFFF" d="M56.2,0c-1.7,0-3,1.3-3,3v2.2c0,8.1-3.2,16.1-8.9,22.7c-2.1-5.8-5.8-10.9-10.7-14.6c-1-0.7-2-1.6-3.3-1.8
	c-1.5-0.2-2.6,0.4-3.8,1.3c-2.1,1.5-4,3.2-5.7,5.2c-2.5,2.9-4.5,6.3-5.8,10C9.2,21.2,6,13.3,6,5.2V3c0-3.9-6-3.9-6,0v2.2
	c0,10.9,4.7,21.4,13.3,29.7c-0.2,1.6-0.7,3.9,0.2,5.4c0.7,1.2,2.1,1.7,3.4,1.4c1.3-0.4,2.1-1.6,2.2-2.9c0.1-1.4,0.1-2.8,0.3-4.2
	c1.1-6.7,4.8-12.7,10.2-16.7c5.4,4,9.1,10.1,10.2,16.7c0.2,1.4,0.3,2.8,0.3,4.2c0.1,1.3,0.8,2.5,2.2,2.9c1.3,0.4,2.7-0.2,3.4-1.4
	c0.9-1.5,0.4-3.8,0.2-5.4c8.6-8.3,13.3-18.8,13.3-29.7V3C59.2,1.3,57.8,0,56.2,0z"/>
</svg>
